<svg xmlns="http://www.w3.org/2000/svg" xmlns:xlink="http://www.w3.org/1999/xlink"><defs><symbol aria-hidden="true" class="svg-inline--fa fa-frown fa-w-16" viewBox="0 0 496 512" id="confirmed"><path fill="currentColor" d="M248 8C111 8 0 119 0 256s111 248 248 248 248-111 248-248S385 8 248 8zm80 168c17.7 0 32 14.3 32 32s-14.3 32-32 32-32-14.3-32-32 14.3-32 32-32zm-160 0c17.7 0 32 14.3 32 32s-14.3 32-32 32-32-14.3-32-32 14.3-32 32-32zm170.2 218.2C315.8 367.4 282.9 352 248 352s-67.8 15.4-90.2 42.2c-13.5 16.3-38.1-4.2-24.6-20.5C161.7 339.6 203.6 320 248 320s86.3 19.6 114.7 53.8c13.6 16.2-11 36.7-24.5 20.4z" /></symbol><symbol aria-hidden="true" class="svg-inline--fa fa-sad-tear fa-w-16" viewBox="0 0 496 512" id="dead"><path fill="currentColor" d="M248 8C111 8 0 119 0 256s111 248 248 248 248-111 248-248S385 8 248 8zm80 168c17.7 0 32 14.3 32 32s-14.3 32-32 32-32-14.3-32-32 14.3-32 32-32zM152 416c-26.5 0-48-21-48-47 0-20 28.5-60.4 41.6-77.8 3.2-4.3 9.6-4.3 12.8 0C171.5 308.6 200 349 200 369c0 26-21.5 47-48 47zm16-176c-17.7 0-32-14.3-32-32s14.3-32 32-32 32 14.3 32 32-14.3 32-32 32zm170.2 154.2C315.8 367.4 282.9 352 248 352c-21.2 0-21.2-32 0-32 44.4 0 86.3 19.6 114.7 53.8 13.8 16.4-11.2 36.5-24.5 20.4z" /></symbol><symbol aria-hidden="true" class="svg-inline--fa fa-grin fa-w-16" viewBox="0 0 496 512" id="recovered"><path fill="currentColor" d="M248 8C111 8 0 119 0 256s111 248 248 248 248-111 248-248S385 8 248 8zm80 168c17.7 0 32 14.3 32 32s-14.3 32-32 32-32-14.3-32-32 14.3-32 32-32zm-160 0c17.7 0 32 14.3 32 32s-14.3 32-32 32-32-14.3-32-32 14.3-32 32-32zm80 256c-60.6 0-134.5-38.3-143.8-93.3-2-11.8 9.3-21.6 20.7-17.9C155.1 330.5 200 336 248 336s92.9-5.5 123.1-15.2c11.3-3.7 22.6 6.1 20.7 17.9-9.3 55-83.2 93.3-143.8 93.3z" /></symbol><symbol aria-hidden="true" class="svg-inline--fa fa-procedures fa-w-20" viewBox="0 0 640 512" id="serious"><path fill="currentColor" d="M528 224H272c-8.8 0-16 7.2-16 16v144H64V144c0-8.8-7.2-16-16-16H16c-8.8 0-16 7.2-16 16v352c0 8.8 7.2 16 16 16h32c8.8 0 16-7.2 16-16v-48h512v48c0 8.8 7.2 16 16 16h32c8.8 0 16-7.2 16-16V336c0-61.9-50.1-112-112-112zM136 96h126.1l27.6 55.2c5.9 11.8 22.7 11.8 28.6 0L368 51.8 390.1 96H512c8.8 0 16-7.2 16-16s-7.2-16-16-16H409.9L382.3 8.8C376.4-3 359.6-3 353.7 8.8L304 108.2l-19.9-39.8c-1.4-2.7-4.1-4.4-7.2-4.4H136c-4.4 0-8 3.6-8 8v16c0 4.4 3.6 8 8 8zm24 256c35.3 0 64-28.7 64-64s-28.7-64-64-64-64 28.7-64 64 28.7 64 64 64z" /></symbol></defs></svg>